PathFileType	4	(X/Y/Z)	s08c0302.trc
DataRate	CameraRate	NumFrames	NumMarkers	Units	OrigDataRate	OrigDataStartFrame	OrigNumFrames
200	200	6	50	mm	200	1750	2000
Frame#	Time	racr			lacr			c7			jug			rlel			rdr			llel			ldr			s2			lic			ric			lasi			rasi			rpsi			lpsi			rgt			lgt			rth1			rth2			rth3			rth4			rlfc			rmfc			rsh1			rsh2			rsh3			rsh4			rlmal			rmmal			rcal			rtoe			rmt5			lth1			lth2			lth4			lth3			llfc			lmfc			llmal			lmmal			lcal			lmt5			lsh1			lsh2			lsh3			lsh4			ltoe			SBIKE			LBIKE			RBIKE			
		X1	Y1	Z1	X2	Y2	Z2	X3	Y3	Z3	X4	Y4	Z4	X5	Y5	Z5	X6	Y6	Z6	X7	Y7	Z7	X8	Y8	Z8	X9	Y9	Z9	X10	Y10	Z10	X11	Y11	Z11	X12	Y12	Z12	X13	Y13	Z13	X14	Y14	Z14	X15	Y15	Z15	X16	Y16	Z16	X17	Y17	Z17	X18	Y18	Z18	X19	Y19	Z19	X20	Y20	Z20	X21	Y21	Z21	X22	Y22	Z22	X23	Y23	Z23	X24	Y24	Z24	X25	Y25	Z25	X26	Y26	Z26	X27	Y27	Z27	X28	Y28	Z28	X29	Y29	Z29	X30	Y30	Z30	X31	Y31	Z31	X32	Y32	Z32	X33	Y33	Z33	X34	Y34	Z34	X35	Y35	Z35	X36	Y36	Z36	X37	Y37	Z37	X38	Y38	Z38	X39	Y39	Z39	X40	Y40	Z40	X41	Y41	Z41	X42	Y42	Z42	X43	Y43	Z43	X44	Y44	Z44	X45	Y45	Z45	X46	Y46	Z46	X47	Y47	Z47	X48	Y48	Z48	X49	Y49	Z49	X50	Y50	Z50	
1750	8.7500	559.518649	1372.150408	-72.947026	553.718051	1368.422798	-395.438007	526.600534	1429.498298	-230.615856	493.797797	1268.604891	-224.514069	613.053851	1120.443560	25.837000	791.514850	884.061360	-60.357810	606.631455	1110.766846	-484.269998	794.111619	889.581344	-419.548031	-39.736732	1200.037049	-215.694554	136.559360	1196.959550	-380.965342	133.186554	1194.118322	-58.207305	144.554497	1143.247858	-331.956192	154.769118	1139.251713	-92.027713	-0.237475	1238.461314	-164.222954	-5.117102	1245.283372	-257.974437	45.114789	1080.685336	-28.836010	60.870811	1096.306797	-411.257639	154.623701	940.519331	-27.114356	224.326742	885.651470	-33.043523	256.750891	805.610634	-47.663326	253.451901	907.930806	-39.432975	326.942942	713.839281	-66.335185	303.136623	696.597069	-173.546716	298.699896	584.466363	-31.772111	324.705751	499.891767	-47.666439	304.822711	415.626568	-52.000688	351.677240	504.331507	-77.767566	300.511949	295.403063	-56.485461	311.572384	318.567492	-146.021634	224.030193	262.520975	-103.109688	523.803845	264.547286	-108.975333	436.426201	229.668037	-40.735857	161.203362	1013.186351	-426.389420	244.833370	987.535674	-431.791849	265.044931	1016.524608	-420.770559	304.453940	922.138231	-441.100331	386.192668	821.625935	-425.974868	397.055838	800.147174	-324.842998	92.771704	540.013145	-400.338875	129.488409	540.896947	-316.755892	28.132583	560.529931	-359.205182	156.624064	389.329583	-419.421436	307.439496	725.461556	-443.445591	261.429332	659.241756	-422.130859	183.348138	615.008224	-416.565106	278.961319	646.096165	-386.862483	239.726956	363.907058	-350.124539	-147.944265	935.227638	-225.406766	9.049800	79.830948	-425.156651	9.185285	79.910424	-27.294001	
1751	8.7550	559.454184	1372.253027	-73.808605	553.758219	1368.408342	-396.315560	526.863542	1430.122361	-231.836824	493.752106	1269.602864	-225.320372	612.721563	1120.554118	24.592021	791.994577	883.810483	-60.515680	606.751708	1110.895868	-485.141997	794.160824	889.745567	-419.351395	-39.720836	1200.497959	-214.383668	135.712134	1197.872329	-380.470766	134.146401	1194.041854	-57.608200	144.259764	1144.222140	-331.316544	155.474831	1137.582043	-90.933928	0.192910	1238.530437	-162.772021	-5.180094	1245.706504	-256.596622	44.443215	1080.038206	-28.338130	61.098188	1098.633737	-410.958031	150.681427	937.726539	-26.384092	218.895728	880.973273	-32.390710	249.550977	800.338814	-47.423411	248.788652	902.711121	-38.748645	317.971929	707.430112	-65.639781	295.839245	689.344270	-170.968912	290.811556	577.883372	-30.839756	317.713879	493.717497	-46.848671	298.636654	409.107781	-51.393827	345.083353	498.355762	-77.177623	295.808850	288.773017	-56.147099	307.510294	311.646601	-145.618371	219.655302	257.338620	-103.041047	519.347898	254.453626	-108.678258	431.388924	220.704028	-40.638502	162.279102	1017.652041	-425.903111	246.406635	993.705089	-431.291994	266.041250	1022.947829	-419.773301	307.368985	929.599081	-441.103539	391.018020	829.874684	-425.838238	399.380143	807.086605	-321.382730	97.269946	548.456603	-400.334324	132.321311	549.553636	-317.308262	31.838876	568.366857	-359.048722	162.037700	398.419777	-419.511961	312.379411	733.477024	-443.339021	266.156933	667.395053	-421.956557	187.701102	623.429680	-416.578847	283.585222	654.314780	-386.531776	245.090817	374.235191	-351.002188	-147.914953	935.249828	-225.218084	9.049434	79.888548	-425.154160	9.139438	79.989619	-27.299368	
1752	8.7600	559.422153	1372.353793	-75.012463	553.833153	1368.457338	-397.240401	527.038652	1430.699415	-232.911421	493.611584	1270.569741	-226.241013	613.415746	1121.120101	23.418495	793.196213	884.401084	-60.342793	606.878021	1111.052423	-486.301280	794.705977	890.182802	-420.136659	-39.617326	1200.794707	-213.247133	135.447669	1198.690038	-380.460938	135.110826	1193.797949	-57.372884	144.117607	1145.186019	-330.783518	155.637459	1136.256833	-90.049768	0.255404	1238.504178	-161.769556	-5.171656	1246.156252	-255.262712	43.799468	1079.375844	-28.117750	61.407140	1100.939298	-410.689930	146.882412	935.134082	-25.533623	213.811851	876.586713	-31.522430	242.365251	795.483153	-46.132425	244.085192	897.797576	-38.124945	309.066054	701.263192	-64.944363	286.172325	683.238984	-170.141998	282.878941	571.744066	-29.853239	310.511467	487.870030	-46.091074	292.320645	403.084596	-50.842728	337.900503	492.896649	-76.307167	290.810259	282.584687	-55.863601	302.944237	305.567043	-145.031201	214.994999	252.535139	-102.970783	514.588273	244.238599	-108.560136	425.987489	212.045929	-40.505974	155.438397	1024.068225	-431.376079	247.957581	999.878940	-430.691117	266.629780	1028.831829	-417.473669	310.167969	936.999378	-441.048409	395.240708	838.332479	-425.723682	402.687040	814.565239	-318.702958	102.099240	556.487791	-400.319676	136.921944	557.904718	-317.307282	35.989519	575.807011	-359.111563	168.038440	407.280333	-419.586896	317.515799	741.444638	-443.299307	271.034048	675.614747	-421.812752	192.786228	631.633954	-416.262730	288.433972	662.495862	-386.348419	251.487746	383.145239	-349.734303	-147.881375	935.274751	-225.141687	9.066608	79.898332	-425.141753	9.047502	79.760438	-27.671445	
1753	8.7650	559.526359	1372.434067	-76.022456	553.884368	1368.579431	-398.108809	527.205414	1431.374795	-234.097041	493.700815	1271.594144	-226.951120	614.227474	1121.604766	22.213149	792.931515	883.597026	-60.458614	607.007214	1111.232067	-487.487849	794.937931	890.389964	-420.246355	-39.515860	1201.109345	-212.220639	134.949616	1199.555033	-380.120669	136.072944	1193.641317	-57.108989	144.030236	1146.074578	-330.162164	156.113666	1135.097719	-88.993266	0.753952	1238.517840	-160.544993	-5.218734	1246.364486	-253.980083	43.121185	1078.852965	-27.843350	61.798747	1103.196973	-410.411259	143.161377	932.685877	-24.650565	208.908868	872.665352	-29.909721	235.143875	790.929228	-45.146685	239.208602	893.202111	-37.579264	300.241589	695.562734	-64.304269	276.647037	677.302147	-169.397262	274.995013	566.008742	-28.956419	303.318057	482.448492	-45.297242	285.841279	397.509671	-50.219394	330.633189	487.747951	-75.500609	285.636933	276.877691	-55.552902	297.837408	299.936113	-144.596732	210.017482	248.426203	-102.851163	509.311532	234.115911	-108.463270	420.090431	203.689345	-40.378764	163.477209	1027.186461	-426.331749	249.596283	1006.228119	-430.418338	267.567918	1035.136233	-416.356157	312.792684	944.477094	-440.931026	399.822547	846.654508	-425.508651	407.252387	822.709182	-317.231015	107.233012	564.074491	-400.345658	142.000782	565.874271	-317.343155	40.348832	582.674106	-359.137535	174.427368	415.652868	-419.807628	322.611016	749.422222	-442.983691	276.124646	683.682005	-421.658105	197.814652	639.596875	-416.059609	293.445659	670.522088	-386.084908	258.064046	392.869862	-349.647794	-147.857854	935.298005	-225.067923	9.060204	79.918042	-425.125687	9.219059	80.002579	-27.111343	
1754	8.7700	558.930894	1371.526051	-79.130413	553.986813	1368.773377	-398.997758	527.273269	1431.920225	-235.098751	493.704630	1272.516258	-228.192228	615.308808	1122.208008	20.939735	793.534519	883.315593	-60.510298	607.085120	1111.415990	-489.042883	795.193612	890.638047	-420.315844	-39.342243	1201.485825	-211.229456	134.724577	1200.251270	-379.979280	137.056153	1193.481921	-56.795556	144.000716	1147.033013	-329.564137	156.530211	1133.750441	-87.972954	1.280558	1238.523875	-159.416230	-5.145814	1246.741764	-252.877571	42.548824	1078.485805	-27.707113	62.401243	1105.575469	-410.180335	139.477608	930.337807	-23.725925	203.781434	868.928070	-28.976669	228.279999	786.559682	-43.962720	234.622470	888.663883	-36.939293	291.530955	690.144617	-63.642971	267.258078	671.737563	-168.682130	266.992271	560.771752	-28.231736	295.982858	477.489761	-44.542938	279.310624	392.372974	-49.603921	323.320924	482.991453	-74.717746	280.189454	271.684087	-55.169043	292.792154	294.575987	-144.082150	204.631805	244.812253	-102.836170	503.601977	224.303645	-108.224527	413.734425	195.699593	-40.235480	164.641595	1031.690983	-425.563179	251.291933	1012.689604	-430.802490	268.558328	1041.354441	-415.181316	315.323583	951.637080	-440.427305	403.921581	855.171214	-425.695381	412.063294	830.550456	-318.394383	112.786192	571.149071	-400.397831	147.359460	573.297692	-317.451410	45.002860	589.019830	-359.304819	181.294431	423.758446	-419.923584	327.715029	757.407854	-442.558535	281.349113	691.633552	-421.479736	203.063514	647.394524	-415.766698	298.648576	678.368299	-385.971708	265.351550	402.005063	-350.108183	-147.814130	935.323104	-224.992500	9.073211	79.978695	-425.165488	9.213158	80.100991	-27.109434	
1755	8.7750	559.087669	1371.523459	-80.211960	553.994649	1369.013363	-399.751395	527.270589	1432.569078	-236.023202	493.852230	1273.472094	-229.237575	617.601052	1123.196194	19.923989	794.204916	883.050009	-60.468375	607.314613	1111.666694	-490.375385	795.504869	890.901677	-420.387324	-39.676039	1201.841508	-210.036860	134.426819	1200.903858	-379.846354	138.031401	1193.225574	-56.529634	143.855673	1147.747362	-328.590194	156.948841	1132.149652	-87.067128	1.782203	1238.524487	-158.441371	-5.099417	1247.127442	-251.807307	42.178500	1078.092475	-27.517523	63.102779	1108.097187	-410.048639	135.983211	928.041618	-23.236938	199.080257	865.426804	-28.140325	221.369420	782.192836	-42.799108	230.456497	884.267820	-35.433785	283.003028	685.044574	-63.318784	258.096899	666.665270	-168.087326	259.059382	555.877548	-27.357806	288.633289	472.851469	-43.832538	272.628050	387.738297	-48.995151	315.894552	478.622996	-74.025929	274.525524	266.900255	-54.975557	287.259500	289.901044	-143.585778	199.062702	241.690995	-102.669581	497.626333	214.757204	-108.087117	407.057642	188.192902	-40.096134	165.840415	1036.198987	-424.417821	252.780620	1018.725143	-429.862824	269.582905	1047.512314	-414.010392	317.829254	958.843729	-440.119180	407.898539	863.418577	-425.327706	416.491943	838.636559	-317.207849	118.606215	577.638547	-400.489604	154.223937	580.407939	-316.555882	49.867941	594.789174	-359.430793	188.672875	431.441977	-419.990199	332.745989	765.292550	-442.138646	286.554072	699.230185	-421.035070	208.516734	654.892453	-415.389653	304.080982	685.939388	-385.693187	272.622218	410.677332	-350.270936	-147.735108	935.356484	-224.911967	9.100594	79.989340	-425.145881	9.208127	79.991565	-27.168138	
